<svg width="32" height="32" viewBox="0 0 32 32" fill="none" xmlns="http://www.w3.org/2000/svg">
<g clip-path="url(#clip0_19_118)">
<path d="M16.0014 -0.000244141C11.656 -0.000244141 11.1107 0.0187564 9.40398 0.0964239C7.70063 0.174425 6.53795 0.444094 5.5206 0.839765C4.46826 1.24844 3.57558 1.79511 2.68624 2.68479C1.79623 3.57413 1.24956 4.4668 0.839553 5.51882C0.442882 6.53649 0.17288 7.69951 0.0962121 9.40219C0.019878 11.1089 -0.00012207 11.6545 -0.00012207 15.9999C-0.00012207 20.3453 0.0192118 20.889 0.0965459 22.5957C0.17488 24.299 0.444549 25.4617 0.839887 26.479C1.24889 27.5314 1.79556 28.4241 2.68524 29.3134C3.57425 30.2034 4.46692 30.7514 5.5186 31.1601C6.53661 31.5558 7.69962 31.8254 9.40264 31.9034C11.1093 31.9811 11.6543 32.0001 15.9994 32.0001C20.3451 32.0001 20.8888 31.9811 22.5954 31.9034C24.2988 31.8254 25.4628 31.5558 26.4808 31.1601C27.5328 30.7514 28.4242 30.2034 29.3132 29.3134C30.2032 28.4241 30.7499 27.5314 31.1599 26.4794C31.5532 25.4617 31.8232 24.2987 31.9032 22.596C31.9799 20.8893 31.9999 20.3453 31.9999 15.9999C31.9999 11.6545 31.9799 11.1092 31.9032 9.40252C31.8232 7.69917 31.5532 6.53649 31.1599 5.51915C30.7499 4.4668 30.2032 3.57413 29.3132 2.68479C28.4232 1.79478 27.5332 1.2481 26.4798 0.839765C25.4598 0.444094 24.2965 0.174425 22.5931 0.0964239C20.8864 0.0187564 20.3431 -0.000244141 15.9964 -0.000244141H16.0014ZM14.566 2.88312C14.992 2.88245 15.4674 2.88312 16.0014 2.88312C20.2734 2.88312 20.7798 2.89845 22.4668 2.97512C24.0268 3.04646 24.8735 3.30713 25.4375 3.52613C26.1841 3.81613 26.7165 4.1628 27.2762 4.72281C27.8362 5.28281 28.1828 5.81615 28.4735 6.56283C28.6925 7.12617 28.9535 7.97284 29.0245 9.53286C29.1012 11.2195 29.1178 11.7262 29.1178 15.9963C29.1178 20.2663 29.1012 20.773 29.0245 22.4597C28.9532 24.0197 28.6925 24.8664 28.4735 25.4297C28.1835 26.1764 27.8362 26.708 27.2762 27.2677C26.7162 27.8277 26.1845 28.1744 25.4375 28.4644C24.8741 28.6844 24.0268 28.9444 22.4668 29.0157C20.7801 29.0924 20.2734 29.1091 16.0014 29.1091C11.729 29.1091 11.2227 29.0924 9.53598 29.0157C7.97596 28.9437 7.12929 28.6831 6.56495 28.4641C5.81827 28.1741 5.28493 27.8274 4.72493 27.2674C4.16492 26.7074 3.81825 26.1754 3.52758 25.4284C3.30858 24.865 3.04758 24.0184 2.97658 22.4583C2.89991 20.7716 2.88457 20.265 2.88457 15.9923C2.88457 11.7195 2.89991 11.2155 2.97658 9.52886C3.04791 7.96884 3.30858 7.12217 3.52758 6.55816C3.81758 5.81149 4.16492 5.27815 4.72493 4.71814C5.28493 4.15813 5.81827 3.81146 6.56495 3.52079C7.12895 3.30079 7.97596 3.04079 9.53598 2.96912C11.012 2.90245 11.584 2.88245 14.566 2.87912V2.88312ZM24.5421 5.53982C23.4821 5.53982 22.6221 6.39882 22.6221 7.45917C22.6221 8.51918 23.4821 9.37919 24.5421 9.37919C25.6021 9.37919 26.4622 8.51918 26.4622 7.45917C26.4622 6.39916 25.6021 5.53915 24.5421 5.53915V5.53982ZM16.0014 7.78317C11.4637 7.78317 7.78463 11.4622 7.78463 15.9999C7.78463 20.5376 11.4637 24.215 16.0014 24.215C20.5391 24.215 24.2168 20.5376 24.2168 15.9999C24.2168 11.4622 20.5391 7.78317 16.0014 7.78317ZM16.0014 10.6665C18.9467 10.6665 21.3348 13.0542 21.3348 15.9999C21.3348 18.9453 18.9467 21.3333 16.0014 21.3333C13.0557 21.3333 10.668 18.9453 10.668 15.9999C10.668 13.0542 13.0557 10.6665 16.0014 10.6665Z" fill="#3A2007"/>
</g>
<defs>
<clipPath id="clip0_19_118">
<rect width="32.001" height="32" fill="white"/>
</clipPath>
</defs>
</svg>
