<svg width="206" height="61" viewBox="0 0 206 61" fill="none" xmlns="http://www.w3.org/2000/svg">
<path d="M198.25 0H7.625C3.41383 0 0 3.41383 0 7.625V53.375C0 57.5862 3.41383 61 7.625 61H198.25C202.461 61 205.875 57.5862 205.875 53.375V7.625C205.875 3.41383 202.461 0 198.25 0Z" fill="black"/>
<path d="M198.25 1.22C201.788 1.22 204.655 4.087 204.655 7.625V53.375C204.655 56.913 201.788 59.78 198.25 59.78H7.625C4.087 59.78 1.22 56.913 1.22 53.375V7.625C1.22 4.087 4.087 1.22 7.625 1.22H198.25ZM198.25 0H7.625C3.43125 0 0 3.43125 0 7.625V53.375C0 57.5687 3.43125 61 7.625 61H198.25C202.444 61 205.875 57.5687 205.875 53.375V7.625C205.875 3.43125 202.444 0 198.25 0Z" fill="#A6A6A6"/>
<path d="M72.3155 15.6158C72.3155 16.8968 71.9342 17.9186 71.1717 18.6658C70.3177 19.5656 69.1892 20.0231 67.8167 20.0231C66.4442 20.0231 65.3767 19.5656 64.4465 18.6506C63.5162 17.7356 63.0587 16.5918 63.0587 15.2498C63.0587 13.9078 63.5162 12.7641 64.4465 11.8491C65.3767 10.9341 66.49 10.4766 67.8167 10.4766C68.4725 10.4766 69.0977 10.5986 69.6925 10.8578C70.2872 11.1171 70.76 11.4526 71.126 11.8796L70.3177 12.6878C69.7077 11.9711 68.8842 11.6051 67.8167 11.6051C66.856 11.6051 66.0172 11.9406 65.3157 12.6268C64.6142 13.2978 64.2635 14.1823 64.2635 15.2651C64.2635 16.3478 64.6142 17.2323 65.3157 17.9033C66.0172 18.5743 66.856 18.9251 67.8167 18.9251C68.8385 18.9251 69.6925 18.5896 70.3787 17.9033C70.821 17.4611 71.0802 16.8358 71.1412 16.0428H67.8167V14.9448H72.2545C72.3002 15.1888 72.3155 15.4176 72.3155 15.6311V15.6158Z" fill="white" stroke="white" stroke-width="0.2" stroke-miterlimit="10"/>
<path d="M79.3458 11.8033H75.1826V14.7008H78.9341V15.7988H75.1826V18.6963H79.3458V19.8248H74.0083V10.6748H79.3458V11.8033Z" fill="white" stroke="white" stroke-width="0.2" stroke-miterlimit="10"/>
<path d="M84.3019 19.8248H83.1277V11.8033H80.5657V10.6748H86.8487V11.8033H84.2867V19.8248H84.3019Z" fill="white" stroke="white" stroke-width="0.2" stroke-miterlimit="10"/>
<path d="M91.4084 19.8248V10.6748H92.5827V19.8248H91.4084Z" fill="white" stroke="white" stroke-width="0.2" stroke-miterlimit="10"/>
<path d="M97.7983 19.8248H96.624V11.8033H94.062V10.6748H100.345V11.8033H97.783V19.8248H97.7983Z" fill="white" stroke="white" stroke-width="0.2" stroke-miterlimit="10"/>
<path d="M112.255 18.6353C111.355 19.5656 110.242 20.0231 108.9 20.0231C107.558 20.0231 106.445 19.5656 105.545 18.6353C104.645 17.7051 104.203 16.5766 104.203 15.2498C104.203 13.9231 104.645 12.7793 105.545 11.8643C106.445 10.9341 107.558 10.4766 108.9 10.4766C110.242 10.4766 111.34 10.9341 112.255 11.8643C113.155 12.7946 113.612 13.9231 113.612 15.2498C113.612 16.5766 113.155 17.7203 112.27 18.6353H112.255ZM106.414 17.8728C107.085 18.5591 107.924 18.8946 108.9 18.8946C109.876 18.8946 110.715 18.5591 111.386 17.8728C112.057 17.1866 112.408 16.3173 112.408 15.2498C112.408 14.1823 112.072 13.3131 111.386 12.6268C110.715 11.9406 109.876 11.6051 108.9 11.6051C107.924 11.6051 107.085 11.9406 106.414 12.6268C105.743 13.3131 105.393 14.1823 105.393 15.2498C105.393 16.3173 105.728 17.1866 106.414 17.8728Z" fill="white" stroke="white" stroke-width="0.2" stroke-miterlimit="10"/>
<path d="M115.26 19.8248V10.6748H116.693L121.146 17.7966H121.192L121.146 16.0276V10.6748H122.32V19.8248H121.1L116.449 12.3676H116.403L116.449 14.1366V19.8401H115.275L115.26 19.8248Z" fill="white" stroke="white" stroke-width="0.2" stroke-miterlimit="10"/>
<path d="M103.913 33.1686C100.33 33.1686 97.4017 35.8983 97.4017 39.6498C97.4017 43.4013 100.33 46.1311 103.913 46.1311C107.497 46.1311 110.425 43.3861 110.425 39.6498C110.425 35.9136 107.497 33.1686 103.913 33.1686ZM103.913 43.5843C101.946 43.5843 100.253 41.9678 100.253 39.6498C100.253 37.3318 101.946 35.7153 103.913 35.7153C105.881 35.7153 107.573 37.3166 107.573 39.6498C107.573 41.9831 105.881 43.5843 103.913 43.5843ZM89.7157 33.1686C86.132 33.1686 83.2039 35.8983 83.2039 39.6498C83.2039 43.4013 86.132 46.1311 89.7157 46.1311C93.2995 46.1311 96.2274 43.3861 96.2274 39.6498C96.2274 35.9136 93.2995 33.1686 89.7157 33.1686ZM89.7157 43.5843C87.7485 43.5843 86.0557 41.9678 86.0557 39.6498C86.0557 37.3318 87.7485 35.7153 89.7157 35.7153C91.683 35.7153 93.3757 37.3166 93.3757 39.6498C93.3757 41.9831 91.683 43.5843 89.7157 43.5843ZM72.8187 35.1511V37.8961H79.4067C79.2084 39.4516 78.6899 40.5801 77.9122 41.3578C76.9514 42.3186 75.4569 43.3708 72.8339 43.3708C68.7774 43.3708 65.6054 40.1073 65.6054 36.0508C65.6054 31.9943 68.7774 28.7308 72.8339 28.7308C75.0147 28.7308 76.6159 29.5848 77.7902 30.6981L79.7269 28.7613C78.0799 27.1906 75.8992 25.9858 72.8187 25.9858C67.2677 25.9858 62.6012 30.4998 62.6012 36.0661C62.6012 41.6323 67.2677 46.1463 72.8187 46.1463C75.8229 46.1463 78.0799 45.1703 79.8489 43.3251C81.6637 41.5103 82.2279 38.9483 82.2279 36.8896C82.2279 36.2491 82.1822 35.6543 82.0754 35.1663H72.8187V35.1511ZM141.916 37.2861C141.383 35.8373 139.736 33.1533 136.365 33.1533C132.995 33.1533 130.25 35.7763 130.25 39.6346C130.25 43.2641 132.995 46.1158 136.686 46.1158C139.659 46.1158 141.383 44.3011 142.084 43.2488L139.873 41.7696C139.141 42.8523 138.134 43.5691 136.686 43.5691C135.237 43.5691 134.2 42.8981 133.544 41.6018L142.221 38.0181L141.932 37.2861H141.916ZM133.071 39.4516C132.995 36.9506 135.008 35.6696 136.457 35.6696C137.585 35.6696 138.546 36.2338 138.866 37.0421L133.071 39.4516ZM126.026 45.7346H128.878V26.6721H126.026V45.7346ZM121.359 34.6021H121.268C120.627 33.8396 119.407 33.1533 117.852 33.1533C114.604 33.1533 111.63 36.0051 111.63 39.6651C111.63 43.3251 114.604 46.1311 117.852 46.1311C119.407 46.1311 120.627 45.4448 121.268 44.6518H121.359V45.5821C121.359 48.0678 120.033 49.3946 117.898 49.3946C116.159 49.3946 115.076 48.1441 114.634 47.0918L112.148 48.1288C112.865 49.8521 114.756 51.9566 117.898 51.9566C121.237 51.9566 124.059 49.9893 124.059 45.2008V33.5498H121.359V34.6021ZM118.096 43.5691C116.129 43.5691 114.482 41.9221 114.482 39.6651C114.482 37.4081 116.129 35.7153 118.096 35.7153C120.063 35.7153 121.558 37.3928 121.558 39.6651C121.558 41.9373 120.033 43.5691 118.096 43.5691ZM155.275 26.6721H148.459V45.7346H151.31V38.5061H155.291C158.447 38.5061 161.543 36.2186 161.543 32.5891C161.543 28.9596 158.447 26.6721 155.291 26.6721H155.275ZM155.352 35.8678H151.31V29.3256H155.352C157.487 29.3256 158.691 31.0946 158.691 32.5891C158.691 34.0836 157.487 35.8526 155.352 35.8526V35.8678ZM172.935 33.1228C170.876 33.1228 168.741 34.0378 167.857 36.0356L170.388 37.0878C170.922 36.0356 171.928 35.6848 172.981 35.6848C174.445 35.6848 175.954 36.5693 175.97 38.1401V38.3383C175.451 38.0486 174.353 37.6063 172.996 37.6063C170.266 37.6063 167.506 39.1008 167.506 41.8916C167.506 44.4383 169.732 46.0853 172.233 46.0853C174.14 46.0853 175.207 45.2313 175.863 44.2248H175.954V45.7041H178.699V38.3993C178.699 35.0138 176.168 33.1228 172.904 33.1228H172.935ZM172.584 43.5691C171.654 43.5691 170.358 43.0963 170.358 41.9526C170.358 40.4886 171.974 39.9243 173.377 39.9243C174.628 39.9243 175.222 40.1988 175.97 40.5648C175.756 42.3338 174.231 43.5843 172.584 43.5843V43.5691ZM188.719 33.5346L185.455 41.8001H185.364L181.978 33.5346H178.913L183.991 45.0941L181.094 51.5143H184.067L191.891 33.5346H188.734H188.719ZM163.083 45.7346H165.935V26.6721H163.083V45.7346Z" fill="white"/>
<path d="M31.5979 29.6158L15.3567 46.8483C15.8599 48.7241 17.5679 50.0966 19.5962 50.0966C20.4044 50.0966 21.1669 49.8831 21.8227 49.4866L21.8684 49.4561L40.1379 38.9183L31.5827 29.6006L31.5979 29.6158Z" fill="#EA4335"/>
<path d="M48.0222 26.6879H48.0069L40.1227 22.0977L31.2319 30.0124L40.1532 38.9337L48.0069 34.4044C49.3794 33.6572 50.3097 32.2084 50.3097 30.5462C50.3097 28.8839 49.3947 27.4352 48.0222 26.7032V26.6879Z" fill="#FBBC04"/>
<path d="M15.3567 14.1523C15.2652 14.5183 15.2042 14.8843 15.2042 15.2808V45.7351C15.2042 46.1316 15.25 46.4976 15.3567 46.8636L32.147 30.0733L15.3567 14.1523Z" fill="#4285F4"/>
<path d="M31.7199 30.5002L40.1227 22.0974L21.8684 11.5139C21.2127 11.1174 20.4349 10.8887 19.5962 10.8887C17.5679 10.8887 15.8599 12.2764 15.3567 14.1369L31.7199 30.4849V30.5002Z" fill="#34A853"/>
</svg>
